<svg xmlns="http://www.w3.org/2000/svg" width="157" height="31" viewBox="0 0 157 31" fill="none"><path d="M152.979 0H157.002V25.3021H152.979V22.9201C152.508 23.72 151.744 24.3787 150.685 24.8963C149.638 25.4021 148.527 25.655 147.35 25.655C144.974 25.655 142.963 24.7669 141.316 22.9907C139.681 21.2145 138.863 19.0324 138.863 16.4446C138.863 13.8803 139.681 11.71 141.316 9.93381C142.963 8.1576 144.974 7.2695 147.35 7.2695C148.515 7.2695 149.626 7.52828 150.685 8.04585C151.744 8.56342 152.508 9.22215 152.979 10.022V0ZM148.18 21.8261C149.168 21.8261 150.103 21.5791 150.985 21.0851C151.879 20.591 152.544 19.9617 152.979 19.1971V13.7803C152.544 12.9922 151.885 12.3511 151.003 11.857C150.12 11.3512 149.179 11.0983 148.18 11.0983C146.662 11.0983 145.392 11.61 144.368 12.6334C143.345 13.645 142.833 14.9154 142.833 16.4446C142.833 17.9738 143.345 19.2559 144.368 20.2911C145.392 21.3145 146.662 21.8261 148.18 21.8261Z" fill="black"></path><path d="M137.009 15.6859C137.009 16.3682 136.962 16.9504 136.868 17.4327H123.423C123.647 18.8678 124.217 19.9912 125.135 20.8028C126.064 21.6144 127.24 22.0203 128.664 22.0203C129.663 22.0203 130.581 21.8203 131.416 21.4204C132.251 21.0086 132.875 20.4617 133.286 19.7794L136.498 21.8262C135.839 23.026 134.81 23.967 133.41 24.6493C132.022 25.3198 130.416 25.655 128.593 25.655C126.911 25.655 125.37 25.2551 123.97 24.4552C122.57 23.6435 121.459 22.5261 120.635 21.1028C119.824 19.6794 119.418 18.1032 119.418 16.374C119.418 14.6919 119.818 13.1569 120.618 11.7689C121.429 10.3691 122.529 9.26923 123.917 8.46935C125.317 7.66947 126.852 7.26953 128.522 7.26953C130.087 7.26953 131.516 7.64006 132.81 8.38113C134.116 9.12219 135.139 10.1397 135.88 11.4336C136.633 12.7158 137.009 14.1332 137.009 15.6859ZM123.564 14.3449H132.775C132.669 13.2392 132.198 12.3394 131.363 11.6453C130.528 10.9396 129.505 10.5867 128.293 10.5867C127.105 10.5867 126.099 10.9219 125.276 11.5924C124.453 12.2511 123.882 13.1686 123.564 14.3449Z" fill="black"></path><path d="M117.054 7.26953C117.865 7.26953 118.542 7.36363 119.083 7.55184L118.836 11.3454C118.153 11.1101 117.453 10.9925 116.736 10.9925C116.007 10.9925 115.236 11.2689 114.424 11.8218C113.613 12.3629 112.984 13.0981 112.537 14.0273V25.3021H108.531V7.64006H112.537V10.0573C112.972 9.23394 113.625 8.56345 114.495 8.04589C115.366 7.52832 116.218 7.26953 117.054 7.26953Z" fill="black"></path><path d="M100.557 7.64014H104.562V25.3022H100.557V7.64014Z" fill="black"></path><circle cx="102.621" cy="2.68195" r="2.68195" fill="black"></circle><path d="M92.563 7.64014H96.6036V25.3022H92.563V22.9202C92.0455 23.7554 91.2926 24.42 90.3045 24.914C89.3282 25.4081 88.2813 25.6551 87.1638 25.6551C84.9406 25.6551 83.1821 24.9434 81.8882 23.5201C80.5942 22.085 79.9473 20.1383 79.9473 17.6798V7.64014H83.9525V17.0623C83.9525 18.4738 84.3348 19.5913 85.0994 20.4147C85.864 21.2381 86.8815 21.6498 88.1519 21.6498C89.0341 21.6498 89.8752 21.4263 90.6751 20.9793C91.4867 20.5206 92.116 19.9148 92.563 19.1619V7.64014Z" fill="black"></path><path d="M77.2665 20.8204C76.596 22.2908 75.5314 23.4671 74.0728 24.3493C72.6142 25.2198 70.9674 25.655 69.1324 25.655C66.5093 25.655 64.3096 24.7787 62.5334 23.026C60.7689 21.2733 59.8867 19.0913 59.8867 16.4799C59.8867 14.7625 60.2867 13.1981 61.0865 11.7865C61.8864 10.3749 62.9921 9.26923 64.4037 8.46935C65.8152 7.66947 67.3797 7.26953 69.0971 7.26953C70.8027 7.26953 72.3319 7.65771 73.6846 8.43406C75.0492 9.21042 76.0608 10.2573 76.7195 11.5748L73.3141 13.4804C72.9495 12.7628 72.3907 12.1923 71.6379 11.7689C70.8968 11.3454 70.0499 11.1337 69.0971 11.1337C67.5914 11.1337 66.3387 11.6453 65.3388 12.6687C64.3508 13.6803 63.8567 14.9507 63.8567 16.4799C63.8567 17.9856 64.3566 19.2501 65.3565 20.2735C66.3681 21.2851 67.6267 21.7909 69.1324 21.7909C70.1675 21.7909 71.085 21.5615 71.8849 21.1028C72.6848 20.644 73.2847 20.0088 73.6846 19.1972L77.2665 20.8204Z" fill="black"></path><path d="M52.7933 7.64006H56.8162V25.3021H52.7933V22.9201C52.3227 23.72 51.5582 24.3787 50.4995 24.8963C49.4526 25.4021 48.341 25.655 47.1647 25.655C44.7886 25.655 42.7771 24.7669 41.1303 22.9907C39.4953 21.2145 38.6777 19.0325 38.6777 16.4446C38.6777 13.8803 39.4953 11.71 41.1303 9.93384C42.7771 8.15763 44.7886 7.26953 47.1647 7.26953C48.3292 7.26953 49.4408 7.52832 50.4995 8.04589C51.5582 8.56345 52.3227 9.22218 52.7933 10.0221V7.64006ZM47.994 21.8262C48.9821 21.8262 49.9172 21.5792 50.7994 21.0851C51.6934 20.5911 52.358 19.9617 52.7933 19.1972V13.7803C52.358 12.9922 51.6993 12.3511 50.8171 11.8571C49.9349 11.3513 48.9938 11.0984 47.994 11.0984C46.4766 11.0984 45.2062 11.6101 44.1828 12.6334C43.1594 13.645 42.6477 14.9154 42.6477 16.4446C42.6477 17.9738 43.1594 19.256 44.1828 20.2911C45.2062 21.3145 46.4766 21.8262 47.994 21.8262Z" fill="black"></path><rect y="13.1511" width="18.46" height="17.6209" fill="#D1FF87"></rect><path fill-rule="evenodd" clip-rule="evenodd" d="M18.4615 0.564697H12.5879V8.57893L6.92086 2.9119L2.76758 7.06519L8.85387 13.1515H0V19.0251H8.01281L2.76627 24.2716L6.91955 28.4249L12.5879 22.7566V30.7719H18.4615V22.7591L24.1273 28.4249L28.2806 24.2716L23.0341 19.0251H30.2072V13.1515H22.193L28.2793 7.06519L24.126 2.9119L18.4615 8.57639V0.564697Z" fill="#A07FFF"></path><rect y="19.0249" width="5.87363" height="18.46" transform="rotate(-90 0 19.0249)" fill="#5120DD"></rect><rect x="12.5879" y="13.1514" width="5.87363" height="17.6209" fill="#5120DD"></rect><rect width="5.87363" height="12.3716" transform="matrix(-0.707107 -0.707107 -0.707107 0.707107 15.668 19.6768)" fill="#5120DD"></rect></svg>